<?xml version="1.0" encoding="UTF-8" standalone="no"?>
<svg
   xmlns:dc="http://purl.org/dc/elements/1.1/"
   xmlns:cc="http://creativecommons.org/ns#"
   xmlns:rdf="http://www.w3.org/1999/02/22-rdf-syntax-ns#"
   xmlns:svg="http://www.w3.org/2000/svg"
   xmlns="http://www.w3.org/2000/svg"
   xmlns:sodipodi="http://sodipodi.sourceforge.net/DTD/sodipodi-0.dtd"
   xmlns:inkscape="http://www.inkscape.org/namespaces/inkscape"
   class="product-logo-icon"
   width="4096"
   height="4096"
   viewBox="-366.7 125.1 4095.9999 4096.0002"
   style="fill:#ffffff"
   version="1.1"
   id="svg4"
   sodipodi:docname="globoplay-logo.svg"
   inkscape:version="0.92.2 (5c3e80d, 2017-08-06)">
  <!-- <metadata
     id="metadata10">
    <rdf:RDF>
      <cc:Work
         rdf:about="">
        <dc:format>image/svg+xml</dc:format>
        <dc:type
           rdf:resource="http://purl.org/dc/dcmitype/StillImage" />
        <dc:title></dc:title>
      </cc:Work>
    </rdf:RDF>
  </metadata>
  <defs
     id="defs8" />
  <sodipodi:namedview
     pagecolor="#ffffff"
     bordercolor="#666666"
     borderopacity="1"
     objecttolerance="10"
     gridtolerance="10"
     guidetolerance="10"
     inkscape:pageopacity="0"
     inkscape:pageshadow="2"
     inkscape:window-width="1600"
     inkscape:window-height="837"
     id="namedview6"
     showgrid="false"
     inkscape:zoom="0.094818396"
     inkscape:cx="168.61282"
     inkscape:cy="2168.3446"
     inkscape:window-x="-8"
     inkscape:window-y="-8"
     inkscape:window-maximized="1"
     inkscape:current-layer="svg4" /> -->
  <path
     d="m 2972.8053,2500.0175 c 56.567,0 101.4377,-45.5102 135.8948,-131.7475 l 137.9419,-342.766 c 2.0736,-5.5057 2.7774,-8.9681 2.7774,-13.7927 0,-11.7152 -8.9756,-18.6173 -24.8419,-18.6173 h -53.1236 c -15.8663,0 -26.1966,6.8983 -31.7364,22.7684 l -73.7955,219.3168 -86.226,-219.3168 c -6.2171,-15.8663 -16.5285,-22.7684 -32.4289,-22.7684 h -53.8009 c -22.7569,0 -28.9513,15.855 -21.3644,33.0949 l 144.8401,319.3355 -10.3455,22.7834 c -14.4889,31.0174 -28.2664,44.1555 -44.8101,44.1555 -12.4153,0 -22.0872,-6.2247 -29.6779,-11.0493 -14.4927,-9.653 -27.5702,-5.5133 -36.5685,6.202 l -16.5588,21.3909 c -11.7191,14.47 -10.3228,26.2004 4.8435,39.9704 22.0986,20.0174 43.4668,31.0402 88.9807,31.0402 m -277.965,-515.2104 c -57.2329,0 -101.3884,8.9567 -144.8249,40.0044 -17.2475,12.4078 -13.8116,24.1457 -4.1473,38.6233 l 13.1002,19.3211 c 9.6605,14.4776 23.4532,13.1078 39.3347,4.8397 28.2664,-15.17 54.4895,-20.0022 82.7598,-20.0022 49.6423,0 81.409,25.5117 81.409,80.69 v 4.8511 c -28.9855,-11.0341 -62.0993,-15.8739 -98.6413,-15.8739 -103.4848,0 -146.21,55.8556 -146.21,112.4075 0,55.867 37.2384,109.6943 130.3588,109.6943 59.3218,0 99.3111,-25.5533 123.4605,-58.6444 1.3963,10.319 2.7775,20.0022 4.8473,30.3628 2.7207,14.4436 13.7814,19.9795 29.6477,19.9795 h 25.5382 c 17.2096,0 27.5891,-10.3341 27.5891,-27.5815 v -169.6745 c -0.038,-117.2775 -72.4825,-168.9972 -164.2218,-168.9972 m -29.6476,299.3294 c -30.3477,0 -51.7273,-12.3926 -51.7273,-39.3157 0,-28.2589 20.0023,-42.7592 67.6012,-42.7592 28.9703,0 53.116,4.1473 77.2428,9.6643 -6.9172,46.9065 -39.3196,72.4106 -93.1167,72.4106 m -262.3484,72.6907 46.721,-18.1292 c 17.5124,-6.7128 25.9507,-18.8065 25.9507,-38.2486 v -398.1486 c 0,-19.48 -8.461,-31.5586 -25.9507,-38.26 l -46.721,-18.1481 c -18.8141,-7.3788 -31.1423,2.0434 -31.1423,22.8364 v 465.2616 c 0.01,20.8309 12.3358,30.2077 31.1423,22.8365 m -234.9447,-372.0201 c -49.6688,0 -92.4356,22.0872 -122.1059,57.233 -0.6698,-8.9568 -2.0547,-18.6097 -4.8246,-27.5513 -4.1321,-14.4965 -13.7851,-21.3985 -29.6665,-21.3985 h -34.5063 c -17.2096,0 -27.5551,9.6529 -27.5551,28.2929 v 448.3055 c 0,17.9551 10.3265,27.5967 27.5551,27.5967 h 48.3027 c 17.2324,0 27.5778,-9.6416 27.5778,-27.5967 v -157.9214 c 27.6005,29.6249 64.835,47.6065 112.4264,47.6065 100.7187,0 166.9235,-77.2428 166.9235,-186.9296 0.03,-108.3169 -62.0651,-187.6371 -164.1271,-187.6371 m -24.1609,286.2292 c -48.2838,0 -91.0241,-28.9703 -91.0241,-94.4978 v -13.1002 c 0,-57.2443 40.0045,-90.3467 92.4091,-90.3467 45.5253,0 83.4409,29.6741 83.4409,100.696 0.03,71.0294 -40.6779,97.2487 -84.8259,97.2487 m -423.4975,-286.2292 c -115.885,0 -191.7315,86.9109 -191.7315,186.922 0,104.8394 72.4182,187.6068 191.7315,187.6068 115.1887,0 189.707,-88.2844 189.707,-187.6068 0,-103.4735 -72.4447,-186.922 -189.707,-186.922 m -0.6622,286.2292 c -60.0105,0 -87.6148,-47.6027 -87.6148,-99.3072 0,-50.3424 27.5892,-98.6413 88.3186,-98.6413 59.3066,0 86.1957,46.9178 86.1957,98.6413 0,51.7121 -26.8929,99.3072 -86.8995,99.3072 m -386.9442,-286.2292 c -46.2216,0 -86.9109,18.6362 -115.8774,50.3499 v -163.4688 c 0,-17.9248 -10.3606,-27.5815 -28.2854,-27.5815 h -47.6065 c -16.5323,0 -27.5853,9.6643 -27.5853,27.5815 v 451.783 c 0,17.2323 11.0568,27.5816 27.5853,27.5816 h 31.7364 c 16.5512,0 27.5816,-6.2285 31.7364,-23.4305 2.0547,-8.287 2.751,-15.8739 4.1246,-24.1647 27.5967,34.5063 68.2898,55.8973 120.0171,55.8973 101.396,0 166.9008,-77.2693 166.9008,-186.2182 0.034,-108.3207 -62.0576,-188.3296 -162.746,-188.3296 m -25.5306,286.2292 c -48.2801,0 -90.3506,-28.2854 -90.3506,-94.4978 v -13.1002 c 0,-57.2443 39.3195,-90.3467 92.4242,-90.3467 44.8252,0 82.7712,30.359 82.7712,100.696 0,71.7181 -40.0196,97.2487 -84.8448,97.2487 M 883.60278,1984.8071 c -115.87362,0 -191.72766,86.9109 -191.72766,186.922 0,104.8394 72.41817,187.6068 191.72766,187.6068 115.20384,0 189.66162,-88.2844 189.66162,-187.6068 0.015,-103.4735 -71.7068,-186.922 -189.66162,-186.922 m -0.69247,286.2292 c -60.00666,0 -87.5958,-47.6027 -87.5958,-99.3072 0,-50.3424 27.59292,-98.6413 88.28448,-98.6413 59.33311,0 86.23734,46.9178 86.23734,98.6413 -0.004,51.7121 -26.90045,99.3072 -86.92602,99.3072 m -306.22768,79.9976 h 47.60649 c 17.93615,0 27.58535,-10.3417 27.58535,-27.5778 v -451.7565 c 0,-17.94 -9.66055,-27.5967 -27.58535,-27.5967 h -47.60649 c -17.92859,0 -28.28161,9.6643 -28.28161,27.5967 v 451.7754 c 0,17.2134 10.35302,27.5589 28.28161,27.5589 M 464.96384,1993.0865 h -31.7364 c -16.55121,0 -28.27782,6.902 -31.73261,22.0834 -2.05471,8.9681 -2.05471,15.1738 -2.75475,22.0834 -28.27404,-31.7364 -66.91245,-52.4235 -117.95103,-52.4235 -93.81669,0 -167.60845,71.0294 -167.60845,180.0124 0,106.9055 68.29361,175.1916 163.46875,175.1916 48.96873,0 87.58444,-17.94 114.48111,-48.299 v 26.2156 c 0,63.469 -37.92702,95.8676 -109.65651,95.8676 -42.07807,0 -71.73705,-13.0775 -102.07715,-30.3288 -6.2209,-3.4548 -12.40774,-6.2284 -17.93616,-6.2284 -8.29074,0 -15.18519,4.1548 -20.69469,13.1304 l -16.55878,25.5269 c -4.14726,6.1982 -6.20576,11.7342 -6.20576,17.9475 0,6.8982 4.12835,13.7813 12.40774,19.9833 46.90266,35.1987 100.69599,48.9498 165.54995,48.9498 120.70578,0 196.54469,-82.7598 196.54469,-188.2464 v -293.8615 c 0.0341,-17.9551 -9.63785,-27.6043 -27.53995,-27.6043 m -73.84474,175.8916 c 0,56.5216 -40.00065,88.2807 -93.09772,88.2807 -44.8366,0 -81.40895,-30.3742 -81.40895,-93.8167 0,-66.22 40.70447,-91.7393 84.17127,-91.7393 47.58757,0 90.33162,26.9005 90.33162,91.7393 z"
     style="fill:#f31d1d;fill-opacity:1;stroke-width:3.78399897"
     id="path2"
     inkscape:connector-curvature="0" />
</svg>
